<svg xmlns="http://www.w3.org/2000/svg" width="69" height="43" viewBox="0 0 69 43">
  <g id="Numbers" transform="translate(-16 -25.981)">
    <g id="Rectangle_72" data-name="Rectangle 72" transform="translate(16 25.981)" fill="#d9f3f4" stroke="#2a2a2a" stroke-width="1">
      <rect width="69" height="43" rx="3" stroke="none"/>
      <rect x="0.5" y="0.5" width="68" height="42" rx="2.5" fill="none"/>
    </g>
    <g id="Group_104" data-name="Group 104" transform="translate(26.415 32.512)">
      <g id="Group_103" data-name="Group 103" transform="translate(33.704)">
        <g id="Polygon_2" data-name="Polygon 2" fill="#FFA500">
          <path d="M 12.62948703765869 12.51886653900146 L 1.691267490386963 12.51886653900146 C 1.433837532997131 12.51886653900146 1.304527521133423 12.34716606140137 1.26087749004364 12.27334594726562 C 1.217227458953857 12.19952583312988 1.129097461700439 12.0034761428833 1.253167510032654 11.77790641784668 L 6.722267627716064 1.834076046943665 C 6.850857734680176 1.600276112556458 7.071487426757812 1.57503604888916 7.160377502441406 1.57503604888916 C 7.249267578125 1.57503604888916 7.469897270202637 1.600276112556458 7.598487377166748 1.834076046943665 L 13.06758785247803 11.77790641784668 C 13.19165706634521 12.0034761428833 13.1035270690918 12.19952583312988 13.05987739562988 12.27334594726562 C 13.01622772216797 12.34716606140137 12.88691711425781 12.51886653900146 12.62948703765869 12.51886653900146 Z" stroke="none"/>
          <path d="M 7.160367488861084 2.075026512145996 L 7.160377502441406 2.07503604888916 L 1.691277503967285 12.01886558532715 C 1.691277503967285 12.01886558532715 1.691277503967285 12.01886558532715 1.691267967224121 12.01886558532715 L 12.62947750091553 12.01886558532715 L 7.160367488861084 2.075026512145996 M 7.160376071929932 1.075038909912109 C 7.503502368927002 1.075038909912109 7.846627712249756 1.24773120880127 8.036587715148926 1.59311580657959 L 13.50569725036621 11.53694629669189 C 13.87224769592285 12.20340633392334 13.39008712768555 13.01886653900146 12.62948799133301 13.01886653900146 L 1.691267967224121 13.01886653900146 C 0.9306678771972656 13.01886653900146 0.4485073089599609 12.20340633392334 0.8150577545166016 11.53694629669189 L 6.284157752990723 1.59311580657959 C 6.474122524261475 1.24773120880127 6.817249774932861 1.075038909912109 7.160376071929932 1.075038909912109 Z" stroke="none" fill="#0346A5"/>
        </g>
        <g id="Polygon_3" data-name="Polygon 3" transform="translate(14.321 29.943) rotate(180)" fill="#FFA500">
          <path d="M 12.62948703765869 12.51886653900146 L 1.691267490386963 12.51886653900146 C 1.433837532997131 12.51886653900146 1.304527521133423 12.34716606140137 1.26087749004364 12.27334594726562 C 1.217227458953857 12.19952583312988 1.129097461700439 12.0034761428833 1.253167510032654 11.77790641784668 L 6.722267627716064 1.834076046943665 C 6.850857734680176 1.600276112556458 7.071487426757812 1.57503604888916 7.160377502441406 1.57503604888916 C 7.249267578125 1.57503604888916 7.469897270202637 1.600276112556458 7.598487377166748 1.834076046943665 L 13.06758785247803 11.77790641784668 C 13.19165706634521 12.0034761428833 13.1035270690918 12.19952583312988 13.05987739562988 12.27334594726562 C 13.01622772216797 12.34716606140137 12.88691711425781 12.51886653900146 12.62948703765869 12.51886653900146 Z" stroke="none"/>
          <path d="M 7.160367488861084 2.075026512145996 L 7.160377502441406 2.07503604888916 L 1.691277503967285 12.01886558532715 C 1.691277503967285 12.01886558532715 1.691277503967285 12.01886558532715 1.691267967224121 12.01886558532715 L 12.62947750091553 12.01886558532715 L 7.160367488861084 2.075026512145996 M 7.160376071929932 1.075038909912109 C 7.503502368927002 1.075038909912109 7.846627712249756 1.24773120880127 8.036587715148926 1.59311580657959 L 13.50569725036621 11.53694629669189 C 13.87224769592285 12.20340633392334 13.39008712768555 13.01886653900146 12.62948799133301 13.01886653900146 L 1.691267967224121 13.01886653900146 C 0.9306678771972656 13.01886653900146 0.4485073089599609 12.20340633392334 0.8150577545166016 11.53694629669189 L 6.284157752990723 1.59311580657959 C 6.474122524261475 1.24773120880127 6.817249774932861 1.075038909912109 7.160376071929932 1.075038909912109 Z" stroke="none" fill="#0346A5"/>
        </g>
      </g>
      <path id="Path_345" data-name="Path 345" d="M-4.7,0H-8.994V-13.66l-4.215,1.231v-3.25L-5.1-18.484H-4.7ZM14.288,0H1.39V-2.793L7.331-9.039q2.2-2.5,2.2-3.974a2.764,2.764,0,0,0-.521-1.815A1.858,1.858,0,0,0,7.5-15.45a1.882,1.882,0,0,0-1.587.832A3.417,3.417,0,0,0,5.3-12.543H1.009a6.07,6.07,0,0,1,.851-3.142,5.965,5.965,0,0,1,2.361-2.253A7.014,7.014,0,0,1,7.6-18.751a6.9,6.9,0,0,1,4.615,1.384,4.94,4.94,0,0,1,1.619,3.974,5.77,5.77,0,0,1-.406,2.126A9.325,9.325,0,0,1,12.162-9.1,31.819,31.819,0,0,1,9.4-6.056L7.014-3.3h7.274Z" transform="translate(13.585 24.469)" fill="#24313d"/>
    </g>
  </g>
</svg>
