<svg xmlns="http://www.w3.org/2000/svg" width="69.904" height="70.138" viewBox="0 0 69.904 70.138">
  <g id="Donut_Chart" data-name="Donut Chart" transform="translate(-5.17 -5.058)">
    <path id="Path_2" data-name="Path 2" d="M66.313,17.911A17.321,17.321,0,0,0,51.879,32.345a1.444,1.444,0,0,1-1.414,1.213H36.031a1.443,1.443,0,0,1-1.448-1.439c0-.04,0-.081,0-.119A34.64,34.64,0,0,1,66.082.505a1.443,1.443,0,0,1,1.554,1.323c0,.04.005.081.005.119V16.382A1.443,1.443,0,0,1,66.313,17.911Z" transform="translate(-28.908 5.058)" fill="#FFA500" stroke="#2a2a2a" stroke-miterlimit="10" stroke-width="1"/>
    <path id="Path_4" data-name="Path 4" d="M1.948,36.444H16.382A1.444,1.444,0,0,1,17.8,37.656,17.32,17.32,0,1,0,37.542,17.911,1.442,1.442,0,0,1,36.329,16.5V2.063A1.44,1.44,0,0,1,36.791,1,1.415,1.415,0,0,1,37.888.5,34.641,34.641,0,0,1,35,69.641,34.843,34.843,0,0,1,.5,37.888a1.444,1.444,0,0,1,1.323-1.555c.04,0,.081,0,.12,0Z" transform="translate(5.175 5.054)" fill="#0346A5" stroke="#2a2a2a" stroke-miterlimit="10" stroke-width="1"/>
  </g>
</svg>
