<svg xmlns="http://www.w3.org/2000/svg" width="69.649" height="69.649" viewBox="0 0 69.649 69.649">
  <g id="Gauge" transform="translate(-10.5 -10.5)">
    <path id="Path_88" data-name="Path 88" d="M34.324,0A34.324,34.324,0,1,0,68.649,34.329,34.323,34.323,0,0,0,34.324,0Zm0,62.213A27.888,27.888,0,1,1,62.213,34.329,27.888,27.888,0,0,1,34.324,62.218Z" transform="translate(11 10.995)" fill="#24313d" stroke="#2a2a2a" stroke-width="1"/>
    <g id="Group_59" data-name="Group 59" transform="translate(17.436 17.436)">
      <path id="Path_89" data-name="Path 89" d="M26.527,3A27.793,27.793,0,0,0,6.808,11.174l9.1,9.1a15.019,15.019,0,0,1,21.238,0l9.1-9.1A27.793,27.793,0,0,0,26.527,3Z" transform="translate(1.361 -3.005)" fill="#d9f3f4" stroke="#2a2a2a" stroke-width="1"/>
      <path id="Path_90" data-name="Path 90" d="M11.169,6.812a27.887,27.887,0,0,0,0,39.441l9.1-9.1a15.019,15.019,0,0,1,0-21.238Z" transform="translate(-3 1.355)" fill="#d9f3f4" stroke="#2a2a2a" stroke-width="1"/>
      <path id="Path_91" data-name="Path 91" d="M20.95,15.913a15.02,15.02,0,0,1,0,21.238l9.1,9.1a27.884,27.884,0,0,0,0-39.439Z" transform="translate(17.558 1.356)" fill="#FFA500" stroke="#2a2a2a" stroke-width="1"/>
      <path id="Path_95" data-name="Path 95" d="M37.146,20.955a15.02,15.02,0,0,1-21.238,0l-9.1,9.1a27.884,27.884,0,0,0,39.439,0Z" transform="translate(1.361 17.553)" fill="#fff" stroke="#2a2a2a" stroke-width="1"/>
    </g>
    <g id="Group_61" data-name="Group 61" transform="translate(36.617 21.324)">
      <g id="Group_60" data-name="Group 60" transform="translate(0 27.22) rotate(-65)">
        <path id="Path_93" data-name="Path 93" d="M30.034,6.436,9.654,12.477a14.255,14.255,0,0,1-3.218.395A6.436,6.436,0,1,1,6.436,0,13.588,13.588,0,0,1,9.587.395Z" transform="translate(0 0)" fill="#434854" stroke="#2a2a2a" stroke-linecap="round" stroke-linejoin="round" stroke-width="1"/>
        <ellipse id="Ellipse_52" data-name="Ellipse 52" cx="2.445" cy="2.445" rx="2.445" ry="2.445" transform="translate(4.089 4.089)" fill="#eaeaea" stroke="#2a2a2a" stroke-width="1"/>
      </g>
    </g>
  </g>
</svg>
