<svg xmlns="http://www.w3.org/2000/svg" width="66" height="69" viewBox="0 0 66 69">
  <g id="Heat_Map" data-name="Heat Map" transform="translate(-14.766 -20.528)">
    <g id="Rectangle_25" data-name="Rectangle 25" transform="translate(14.766 20.528)" fill="#FFA500" stroke="#2a2a2a" stroke-width="1">
      <rect width="17" height="13" stroke="none"/>
      <rect x="0.5" y="0.5" width="16" height="12" fill="none"/>
    </g>
    <g id="Rectangle_25-2" data-name="Rectangle 25" transform="translate(30.766 20.528)" fill="#FFA500" stroke="#2a2a2a" stroke-width="1">
      <rect width="18" height="13" stroke="none"/>
      <rect x="0.5" y="0.5" width="17" height="12" fill="none"/>
    </g>
    <g id="Rectangle_25-3" data-name="Rectangle 25" transform="translate(47.766 20.528)" fill="#FFA500" stroke="#2a2a2a" stroke-width="1">
      <rect width="17" height="13" stroke="none"/>
      <rect x="0.5" y="0.5" width="16" height="12" fill="none"/>
    </g>
    <g id="Rectangle_25-4" data-name="Rectangle 25" transform="translate(63.766 20.528)" fill="#fff" stroke="#2a2a2a" stroke-width="1">
      <rect width="17" height="13" stroke="none"/>
      <rect x="0.5" y="0.5" width="16" height="12" fill="none"/>
    </g>
    <g id="Rectangle_25-5" data-name="Rectangle 25" transform="translate(14.766 32.528)" fill="#FFA500" stroke="#2a2a2a" stroke-width="1">
      <rect width="17" height="12" stroke="none"/>
      <rect x="0.5" y="0.5" width="16" height="11" fill="none"/>
    </g>
    <g id="Rectangle_25-6" data-name="Rectangle 25" transform="translate(30.766 32.528)" fill="#FFA500" stroke="#2a2a2a" stroke-width="1">
      <rect width="18" height="12" stroke="none"/>
      <rect x="0.5" y="0.5" width="17" height="11" fill="none"/>
    </g>
    <g id="Rectangle_25-7" data-name="Rectangle 25" transform="translate(47.766 32.528)" fill="#FFA500" stroke="#2a2a2a" stroke-width="1">
      <rect width="17" height="12" stroke="none"/>
      <rect x="0.5" y="0.5" width="16" height="11" fill="none"/>
    </g>
    <g id="Rectangle_25-8" data-name="Rectangle 25" transform="translate(63.766 32.528)" fill="#fff" stroke="#2a2a2a" stroke-width="1">
      <rect width="17" height="12" stroke="none"/>
      <rect x="0.5" y="0.5" width="16" height="11" fill="none"/>
    </g>
    <g id="Rectangle_25-9" data-name="Rectangle 25" transform="translate(14.766 43.528)" fill="#FFA500" stroke="#2a2a2a" stroke-width="1">
      <rect width="17" height="13" stroke="none"/>
      <rect x="0.5" y="0.5" width="16" height="12" fill="none"/>
    </g>
    <g id="Rectangle_25-10" data-name="Rectangle 25" transform="translate(30.766 43.528)" fill="#FFA500" stroke="#2a2a2a" stroke-width="1">
      <rect width="18" height="13" stroke="none"/>
      <rect x="0.5" y="0.5" width="17" height="12" fill="none"/>
    </g>
    <g id="Rectangle_25-11" data-name="Rectangle 25" transform="translate(47.766 43.528)" fill="#FFA500" stroke="#2a2a2a" stroke-width="1">
      <rect width="17" height="13" stroke="none"/>
      <rect x="0.5" y="0.5" width="16" height="12" fill="none"/>
    </g>
    <g id="Rectangle_25-12" data-name="Rectangle 25" transform="translate(63.766 43.528)" fill="#FFA500" stroke="#2a2a2a" stroke-width="1">
      <rect width="17" height="13" stroke="none"/>
      <rect x="0.5" y="0.5" width="16" height="12" fill="none"/>
    </g>
    <g id="Rectangle_25-13" data-name="Rectangle 25" transform="translate(14.766 55.528)" fill="#d9f3f4" stroke="#2a2a2a" stroke-width="1">
      <rect width="17" height="11" stroke="none"/>
      <rect x="0.5" y="0.5" width="16" height="10" fill="none"/>
    </g>
    <g id="Rectangle_25-14" data-name="Rectangle 25" transform="translate(30.766 55.528)" fill="#FFA500" stroke="#2a2a2a" stroke-width="1">
      <rect width="18" height="11" stroke="none"/>
      <rect x="0.5" y="0.5" width="17" height="10" fill="none"/>
    </g>
    <g id="Rectangle_25-15" data-name="Rectangle 25" transform="translate(47.766 55.528)" fill="#FFA500" stroke="#2a2a2a" stroke-width="1">
      <rect width="17" height="11" stroke="none"/>
      <rect x="0.5" y="0.5" width="16" height="10" fill="none"/>
    </g>
    <g id="Rectangle_25-16" data-name="Rectangle 25" transform="translate(63.766 55.528)" fill="#fff" stroke="#2a2a2a" stroke-width="1">
      <rect width="17" height="11" stroke="none"/>
      <rect x="0.5" y="0.5" width="16" height="10" fill="none"/>
    </g>
    <g id="Rectangle_25-17" data-name="Rectangle 25" transform="translate(14.766 65.528)" fill="#d9f3f4" stroke="#2a2a2a" stroke-width="1">
      <rect width="17" height="13" stroke="none"/>
      <rect x="0.5" y="0.5" width="16" height="12" fill="none"/>
    </g>
    <g id="Rectangle_25-18" data-name="Rectangle 25" transform="translate(30.766 65.528)" fill="#FFA500" stroke="#2a2a2a" stroke-width="1">
      <rect width="18" height="13" stroke="none"/>
      <rect x="0.5" y="0.5" width="17" height="12" fill="none"/>
    </g>
    <g id="Rectangle_25-19" data-name="Rectangle 25" transform="translate(47.766 65.528)" fill="#24313d" stroke="#2a2a2a" stroke-width="1">
      <rect width="17" height="13" stroke="none"/>
      <rect x="0.5" y="0.5" width="16" height="12" fill="none"/>
    </g>
    <g id="Rectangle_25-20" data-name="Rectangle 25" transform="translate(63.766 65.528)" fill="#24313d" stroke="#2a2a2a" stroke-width="1">
      <rect width="17" height="13" stroke="none"/>
      <rect x="0.5" y="0.5" width="16" height="12" fill="none"/>
    </g>
    <g id="Rectangle_25-21" data-name="Rectangle 25" transform="translate(14.766 76.528)" fill="#d9f3f4" stroke="#2a2a2a" stroke-width="1">
      <rect width="17" height="13" stroke="none"/>
      <rect x="0.5" y="0.5" width="16" height="12" fill="none"/>
    </g>
    <g id="Rectangle_25-22" data-name="Rectangle 25" transform="translate(30.766 76.528)" fill="#d9f3f4" stroke="#2a2a2a" stroke-width="1">
      <rect width="18" height="13" stroke="none"/>
      <rect x="0.5" y="0.5" width="17" height="12" fill="none"/>
    </g>
    <g id="Rectangle_25-23" data-name="Rectangle 25" transform="translate(47.766 76.528)" fill="#24313d" stroke="#2a2a2a" stroke-width="1">
      <rect width="17" height="13" stroke="none"/>
      <rect x="0.5" y="0.5" width="16" height="12" fill="none"/>
    </g>
    <g id="Rectangle_25-24" data-name="Rectangle 25" transform="translate(63.766 76.528)" fill="#24313d" stroke="#2a2a2a" stroke-width="1">
      <rect width="17" height="13" stroke="none"/>
      <rect x="0.5" y="0.5" width="16" height="12" fill="none"/>
    </g>
  </g>
</svg>
