<svg xmlns="http://www.w3.org/2000/svg" xmlns:xlink="http://www.w3.org/1999/xlink" width="77.182" height="38.599" viewBox="0 0 77.182 38.599">
  <defs>
    <clipPath id="clip-path">
      <path id="Subtraction_18" data-name="Subtraction 18" d="M1541.376,1132.5H1525.9a38.095,38.095,0,0,1,76.182,0H1586.6a22.618,22.618,0,0,0-45.223,0Z" transform="translate(-1521.896 -1070.902)" fill="#fff" stroke="#2a2a2a" stroke-linecap="round" stroke-linejoin="round" stroke-width="1"/>
    </clipPath>
  </defs>
  <g id="Parliament_Item_Chart" data-name="Parliament Item Chart" transform="translate(-3.5 -23.5)">
    <g id="Mask_Group_2" data-name="Mask Group 2" clip-path="url(#clip-path)">
      <g id="Group_217" data-name="Group 217">
        <circle id="Ellipse_126" data-name="Ellipse 126" cx="2.5" cy="2.5" r="2.5" transform="translate(1 21)" fill="#24313d"/>
        <circle id="Ellipse_126-2" data-name="Ellipse 126" cx="2.5" cy="2.5" r="2.5" transform="translate(7 21)" fill="#24313d"/>
        <circle id="Ellipse_126-3" data-name="Ellipse 126" cx="2.5" cy="2.5" r="2.5" transform="translate(13 21)" fill="#24313d"/>
        <circle id="Ellipse_126-4" data-name="Ellipse 126" cx="2.5" cy="2.5" r="2.5" transform="translate(19 21)" fill="#24313d"/>
        <circle id="Ellipse_126-5" data-name="Ellipse 126" cx="2.5" cy="2.5" r="2.5" transform="translate(25 21)" fill="#FFA500"/>
        <circle id="Ellipse_126-6" data-name="Ellipse 126" cx="2.5" cy="2.5" r="2.5" transform="translate(31 21)" fill="#FFA500"/>
        <circle id="Ellipse_126-7" data-name="Ellipse 126" cx="2.5" cy="2.5" r="2.5" transform="translate(37 21)" fill="#FFA500"/>
        <circle id="Ellipse_126-8" data-name="Ellipse 126" cx="2.5" cy="2.5" r="2.5" transform="translate(43 21)" fill="#FFA500"/>
        <circle id="Ellipse_126-9" data-name="Ellipse 126" cx="2.5" cy="2.5" r="2.5" transform="translate(49 21)" fill="#FFA500"/>
        <circle id="Ellipse_126-10" data-name="Ellipse 126" cx="2.5" cy="2.5" r="2.5" transform="translate(55 21)" fill="#24313d"/>
        <circle id="Ellipse_126-11" data-name="Ellipse 126" cx="2.5" cy="2.5" r="2.5" transform="translate(61 21)" fill="#24313d"/>
        <circle id="Ellipse_126-12" data-name="Ellipse 126" cx="2.5" cy="2.5" r="2.5" transform="translate(67 21)" fill="#24313d"/>
        <circle id="Ellipse_126-13" data-name="Ellipse 126" cx="2.5" cy="2.5" r="2.5" transform="translate(73 21)" fill="#24313d"/>
        <circle id="Ellipse_126-14" data-name="Ellipse 126" cx="2.5" cy="2.5" r="2.5" transform="translate(79 21)" fill="#24313d"/>
        <circle id="Ellipse_126-15" data-name="Ellipse 126" cx="2.5" cy="2.5" r="2.5" transform="translate(1 27)" fill="#24313d"/>
        <circle id="Ellipse_126-16" data-name="Ellipse 126" cx="2.5" cy="2.5" r="2.5" transform="translate(7 27)" fill="#24313d"/>
        <circle id="Ellipse_126-17" data-name="Ellipse 126" cx="2.5" cy="2.5" r="2.5" transform="translate(13 27)" fill="#24313d"/>
        <circle id="Ellipse_126-18" data-name="Ellipse 126" cx="2.5" cy="2.5" r="2.5" transform="translate(19 27)" fill="#24313d"/>
        <circle id="Ellipse_126-19" data-name="Ellipse 126" cx="2.5" cy="2.5" r="2.5" transform="translate(25 27)" fill="#FFA500"/>
        <circle id="Ellipse_126-20" data-name="Ellipse 126" cx="2.5" cy="2.5" r="2.5" transform="translate(31 27)" fill="#FFA500"/>
        <circle id="Ellipse_126-21" data-name="Ellipse 126" cx="2.5" cy="2.5" r="2.5" transform="translate(37 27)" fill="#FFA500"/>
        <circle id="Ellipse_126-22" data-name="Ellipse 126" cx="2.5" cy="2.5" r="2.5" transform="translate(43 27)" fill="#FFA500"/>
        <circle id="Ellipse_126-23" data-name="Ellipse 126" cx="2.5" cy="2.5" r="2.5" transform="translate(49 27)" fill="#FFA500"/>
        <circle id="Ellipse_126-24" data-name="Ellipse 126" cx="2.5" cy="2.5" r="2.5" transform="translate(55 27)" fill="#FFA500"/>
        <circle id="Ellipse_126-25" data-name="Ellipse 126" cx="2.5" cy="2.5" r="2.5" transform="translate(61 27)" fill="#FFA500"/>
        <circle id="Ellipse_126-26" data-name="Ellipse 126" cx="2.5" cy="2.5" r="2.5" transform="translate(67 27)" fill="#24313d"/>
        <circle id="Ellipse_126-27" data-name="Ellipse 126" cx="2.5" cy="2.5" r="2.5" transform="translate(73 27)" fill="#24313d"/>
        <circle id="Ellipse_126-28" data-name="Ellipse 126" cx="2.5" cy="2.5" r="2.5" transform="translate(79 27)" fill="#24313d"/>
        <circle id="Ellipse_126-29" data-name="Ellipse 126" cx="2.5" cy="2.5" r="2.5" transform="translate(1 33)" fill="#24313d"/>
        <circle id="Ellipse_126-30" data-name="Ellipse 126" cx="2.5" cy="2.5" r="2.5" transform="translate(7 33)" fill="#24313d"/>
        <circle id="Ellipse_126-31" data-name="Ellipse 126" cx="2.5" cy="2.5" r="2.5" transform="translate(13 33)" fill="#24313d"/>
        <circle id="Ellipse_126-32" data-name="Ellipse 126" cx="2.5" cy="2.5" r="2.5" transform="translate(19 33)" fill="#24313d"/>
        <circle id="Ellipse_126-33" data-name="Ellipse 126" cx="2.5" cy="2.5" r="2.5" transform="translate(25 33)" fill="#FFA500"/>
        <circle id="Ellipse_126-34" data-name="Ellipse 126" cx="2.5" cy="2.5" r="2.5" transform="translate(31 33)" fill="#FFA500"/>
        <circle id="Ellipse_126-35" data-name="Ellipse 126" cx="2.5" cy="2.5" r="2.5" transform="translate(37 33)" fill="#FFA500"/>
        <circle id="Ellipse_126-36" data-name="Ellipse 126" cx="2.5" cy="2.5" r="2.5" transform="translate(43 33)" fill="#FFA500"/>
        <circle id="Ellipse_126-37" data-name="Ellipse 126" cx="2.5" cy="2.5" r="2.5" transform="translate(49 33)" fill="#FFA500"/>
        <circle id="Ellipse_126-38" data-name="Ellipse 126" cx="2.5" cy="2.5" r="2.5" transform="translate(55 33)" fill="#FFA500"/>
        <circle id="Ellipse_126-39" data-name="Ellipse 126" cx="2.5" cy="2.5" r="2.5" transform="translate(61 33)" fill="#FFA500"/>
        <circle id="Ellipse_126-40" data-name="Ellipse 126" cx="2.5" cy="2.5" r="2.5" transform="translate(67 33)" fill="#FFA500"/>
        <circle id="Ellipse_126-41" data-name="Ellipse 126" cx="2.5" cy="2.5" r="2.5" transform="translate(73 33)" fill="#24313d"/>
        <circle id="Ellipse_126-42" data-name="Ellipse 126" cx="2.5" cy="2.5" r="2.5" transform="translate(79 33)" fill="#24313d"/>
        <circle id="Ellipse_126-43" data-name="Ellipse 126" cx="2.5" cy="2.5" r="2.5" transform="translate(1 39)" fill="#24313d"/>
        <circle id="Ellipse_126-44" data-name="Ellipse 126" cx="2.5" cy="2.5" r="2.5" transform="translate(7 39)" fill="#24313d"/>
        <circle id="Ellipse_126-45" data-name="Ellipse 126" cx="2.5" cy="2.5" r="2.5" transform="translate(13 39)" fill="#24313d"/>
        <circle id="Ellipse_126-46" data-name="Ellipse 126" cx="2.5" cy="2.5" r="2.5" transform="translate(19 39)" fill="#24313d"/>
        <circle id="Ellipse_126-47" data-name="Ellipse 126" cx="2.5" cy="2.5" r="2.5" transform="translate(25 39)" fill="#FFA500"/>
        <circle id="Ellipse_126-48" data-name="Ellipse 126" cx="2.5" cy="2.5" r="2.5" transform="translate(31 39)" fill="#FFA500"/>
        <circle id="Ellipse_126-49" data-name="Ellipse 126" cx="2.5" cy="2.5" r="2.5" transform="translate(37 39)" fill="#FFA500"/>
        <circle id="Ellipse_126-50" data-name="Ellipse 126" cx="2.5" cy="2.5" r="2.5" transform="translate(43 39)" fill="#FFA500"/>
        <circle id="Ellipse_126-51" data-name="Ellipse 126" cx="2.5" cy="2.5" r="2.5" transform="translate(49 39)" fill="#FFA500"/>
        <circle id="Ellipse_126-52" data-name="Ellipse 126" cx="2.5" cy="2.5" r="2.5" transform="translate(55 39)" fill="#FFA500"/>
        <circle id="Ellipse_126-53" data-name="Ellipse 126" cx="2.5" cy="2.5" r="2.5" transform="translate(61 39)" fill="#FFA500"/>
        <circle id="Ellipse_126-54" data-name="Ellipse 126" cx="2.5" cy="2.5" r="2.5" transform="translate(67 39)" fill="#24313d"/>
        <circle id="Ellipse_126-55" data-name="Ellipse 126" cx="2.5" cy="2.5" r="2.5" transform="translate(73 39)" fill="#24313d"/>
        <circle id="Ellipse_126-56" data-name="Ellipse 126" cx="2.5" cy="2.5" r="2.5" transform="translate(79 39)" fill="#24313d"/>
        <circle id="Ellipse_126-57" data-name="Ellipse 126" cx="2.5" cy="2.5" r="2.5" transform="translate(1 45)" fill="#24313d"/>
        <circle id="Ellipse_126-58" data-name="Ellipse 126" cx="2.5" cy="2.5" r="2.5" transform="translate(7 45)" fill="#24313d"/>
        <circle id="Ellipse_126-59" data-name="Ellipse 126" cx="2.5" cy="2.5" r="2.5" transform="translate(13 45)" fill="#24313d"/>
        <circle id="Ellipse_126-60" data-name="Ellipse 126" cx="2.5" cy="2.5" r="2.5" transform="translate(19 45)" fill="#24313d"/>
        <circle id="Ellipse_126-61" data-name="Ellipse 126" cx="2.5" cy="2.5" r="2.5" transform="translate(25 45)" fill="#24313d"/>
        <circle id="Ellipse_126-62" data-name="Ellipse 126" cx="2.5" cy="2.5" r="2.5" transform="translate(31 45)" fill="#24313d"/>
        <circle id="Ellipse_126-63" data-name="Ellipse 126" cx="2.5" cy="2.5" r="2.5" transform="translate(37 45)" fill="#24313d"/>
        <circle id="Ellipse_126-64" data-name="Ellipse 126" cx="2.5" cy="2.5" r="2.5" transform="translate(43 45)" fill="#24313d"/>
        <circle id="Ellipse_126-65" data-name="Ellipse 126" cx="2.5" cy="2.5" r="2.5" transform="translate(49 45)" fill="#24313d"/>
        <circle id="Ellipse_126-66" data-name="Ellipse 126" cx="2.5" cy="2.5" r="2.5" transform="translate(55 45)" fill="#FFA500"/>
        <circle id="Ellipse_126-67" data-name="Ellipse 126" cx="2.5" cy="2.5" r="2.5" transform="translate(61 45)" fill="#24313d"/>
        <circle id="Ellipse_126-68" data-name="Ellipse 126" cx="2.5" cy="2.5" r="2.5" transform="translate(67 45)" fill="#24313d"/>
        <circle id="Ellipse_126-69" data-name="Ellipse 126" cx="2.5" cy="2.5" r="2.5" transform="translate(73 45)" fill="#24313d"/>
        <circle id="Ellipse_126-70" data-name="Ellipse 126" cx="2.5" cy="2.5" r="2.5" transform="translate(79 45)" fill="#24313d"/>
        <circle id="Ellipse_126-71" data-name="Ellipse 126" cx="2.5" cy="2.5" r="2.5" transform="translate(1 51)" fill="#24313d"/>
        <circle id="Ellipse_126-72" data-name="Ellipse 126" cx="2.5" cy="2.5" r="2.5" transform="translate(7 51)" fill="#24313d"/>
        <circle id="Ellipse_126-73" data-name="Ellipse 126" cx="2.5" cy="2.5" r="2.5" transform="translate(13 51)" fill="#24313d"/>
        <circle id="Ellipse_126-74" data-name="Ellipse 126" cx="2.5" cy="2.5" r="2.5" transform="translate(19 51)" fill="#24313d"/>
        <circle id="Ellipse_126-75" data-name="Ellipse 126" cx="2.5" cy="2.5" r="2.5" transform="translate(25 51)" fill="#24313d"/>
        <circle id="Ellipse_126-76" data-name="Ellipse 126" cx="2.5" cy="2.5" r="2.5" transform="translate(31 51)" fill="#24313d"/>
        <circle id="Ellipse_126-77" data-name="Ellipse 126" cx="2.5" cy="2.5" r="2.5" transform="translate(37 51)" fill="#24313d"/>
        <circle id="Ellipse_126-78" data-name="Ellipse 126" cx="2.5" cy="2.5" r="2.5" transform="translate(43 51)" fill="#24313d"/>
        <circle id="Ellipse_126-79" data-name="Ellipse 126" cx="2.5" cy="2.5" r="2.5" transform="translate(49 51)" fill="#24313d"/>
        <circle id="Ellipse_126-80" data-name="Ellipse 126" cx="2.5" cy="2.5" r="2.5" transform="translate(55 51)" fill="#24313d"/>
        <circle id="Ellipse_126-81" data-name="Ellipse 126" cx="2.5" cy="2.5" r="2.5" transform="translate(61 51)" fill="#24313d"/>
        <circle id="Ellipse_126-82" data-name="Ellipse 126" cx="2.5" cy="2.5" r="2.5" transform="translate(67 51)" fill="#24313d"/>
        <circle id="Ellipse_126-83" data-name="Ellipse 126" cx="2.5" cy="2.5" r="2.5" transform="translate(73 51)" fill="#24313d"/>
        <circle id="Ellipse_126-84" data-name="Ellipse 126" cx="2.5" cy="2.5" r="2.5" transform="translate(79 51)" fill="#24313d"/>
        <circle id="Ellipse_126-85" data-name="Ellipse 126" cx="2.5" cy="2.5" r="2.5" transform="translate(1 57)" fill="#24313d"/>
        <circle id="Ellipse_126-86" data-name="Ellipse 126" cx="2.5" cy="2.5" r="2.5" transform="translate(7 57)" fill="#24313d"/>
        <circle id="Ellipse_126-87" data-name="Ellipse 126" cx="2.5" cy="2.5" r="2.5" transform="translate(13 57)" fill="#24313d"/>
        <circle id="Ellipse_126-88" data-name="Ellipse 126" cx="2.5" cy="2.5" r="2.5" transform="translate(19 57)" fill="#24313d"/>
        <circle id="Ellipse_126-89" data-name="Ellipse 126" cx="2.5" cy="2.5" r="2.5" transform="translate(25 57)" fill="#24313d"/>
        <circle id="Ellipse_126-90" data-name="Ellipse 126" cx="2.5" cy="2.5" r="2.5" transform="translate(31 57)" fill="#24313d"/>
        <circle id="Ellipse_126-91" data-name="Ellipse 126" cx="2.5" cy="2.5" r="2.5" transform="translate(37 57)" fill="#24313d"/>
        <circle id="Ellipse_126-92" data-name="Ellipse 126" cx="2.5" cy="2.5" r="2.5" transform="translate(43 57)" fill="#24313d"/>
        <circle id="Ellipse_126-93" data-name="Ellipse 126" cx="2.5" cy="2.5" r="2.5" transform="translate(49 57)" fill="#24313d"/>
        <circle id="Ellipse_126-94" data-name="Ellipse 126" cx="2.5" cy="2.5" r="2.5" transform="translate(55 57)" fill="#24313d"/>
        <circle id="Ellipse_126-95" data-name="Ellipse 126" cx="2.5" cy="2.5" r="2.5" transform="translate(61 57)" fill="#24313d"/>
        <circle id="Ellipse_126-96" data-name="Ellipse 126" cx="2.5" cy="2.5" r="2.5" transform="translate(67 57)" fill="#24313d"/>
        <circle id="Ellipse_126-97" data-name="Ellipse 126" cx="2.5" cy="2.5" r="2.5" transform="translate(73 57)" fill="#24313d"/>
        <circle id="Ellipse_126-98" data-name="Ellipse 126" cx="2.5" cy="2.5" r="2.5" transform="translate(79 57)" fill="#24313d"/>
        <circle id="Ellipse_126-99" data-name="Ellipse 126" cx="2.5" cy="2.5" r="2.5" transform="translate(1 63)" fill="#24313d"/>
        <circle id="Ellipse_126-100" data-name="Ellipse 126" cx="2.5" cy="2.5" r="2.5" transform="translate(7 63)" fill="#24313d"/>
        <circle id="Ellipse_126-101" data-name="Ellipse 126" cx="2.5" cy="2.5" r="2.5" transform="translate(13 63)" fill="#24313d"/>
        <circle id="Ellipse_126-102" data-name="Ellipse 126" cx="2.5" cy="2.5" r="2.5" transform="translate(19 63)" fill="#24313d"/>
        <circle id="Ellipse_126-103" data-name="Ellipse 126" cx="2.5" cy="2.5" r="2.5" transform="translate(25 63)" fill="#24313d"/>
        <circle id="Ellipse_126-104" data-name="Ellipse 126" cx="2.5" cy="2.5" r="2.5" transform="translate(31 63)" fill="#24313d"/>
        <circle id="Ellipse_126-105" data-name="Ellipse 126" cx="2.5" cy="2.5" r="2.5" transform="translate(37 63)" fill="#24313d"/>
        <circle id="Ellipse_126-106" data-name="Ellipse 126" cx="2.5" cy="2.5" r="2.5" transform="translate(43 63)" fill="#24313d"/>
        <circle id="Ellipse_126-107" data-name="Ellipse 126" cx="2.5" cy="2.5" r="2.5" transform="translate(49 63)" fill="#24313d"/>
        <circle id="Ellipse_126-108" data-name="Ellipse 126" cx="2.5" cy="2.5" r="2.5" transform="translate(55 63)" fill="#24313d"/>
        <circle id="Ellipse_126-109" data-name="Ellipse 126" cx="2.5" cy="2.5" r="2.5" transform="translate(61 63)" fill="#24313d"/>
        <circle id="Ellipse_126-110" data-name="Ellipse 126" cx="2.5" cy="2.5" r="2.5" transform="translate(67 63)" fill="#24313d"/>
        <circle id="Ellipse_126-111" data-name="Ellipse 126" cx="2.5" cy="2.5" r="2.5" transform="translate(73 63)" fill="#24313d"/>
        <circle id="Ellipse_126-112" data-name="Ellipse 126" cx="2.5" cy="2.5" r="2.5" transform="translate(79 63)" fill="#24313d"/>
        <circle id="Ellipse_126-113" data-name="Ellipse 126" cx="2.5" cy="2.5" r="2.5" transform="translate(1 69)" fill="#24313d"/>
        <circle id="Ellipse_126-114" data-name="Ellipse 126" cx="2.5" cy="2.5" r="2.5" transform="translate(7 69)" fill="#24313d"/>
        <circle id="Ellipse_126-115" data-name="Ellipse 126" cx="2.5" cy="2.5" r="2.5" transform="translate(13 69)" fill="#24313d"/>
        <circle id="Ellipse_126-116" data-name="Ellipse 126" cx="2.5" cy="2.5" r="2.5" transform="translate(19 69)" fill="#24313d"/>
        <circle id="Ellipse_126-117" data-name="Ellipse 126" cx="2.5" cy="2.5" r="2.5" transform="translate(25 69)" fill="#24313d"/>
        <circle id="Ellipse_126-118" data-name="Ellipse 126" cx="2.5" cy="2.5" r="2.5" transform="translate(31 69)" fill="#24313d"/>
        <circle id="Ellipse_126-119" data-name="Ellipse 126" cx="2.5" cy="2.5" r="2.5" transform="translate(37 69)" fill="#24313d"/>
        <circle id="Ellipse_126-120" data-name="Ellipse 126" cx="2.5" cy="2.5" r="2.5" transform="translate(43 69)" fill="#24313d"/>
        <circle id="Ellipse_126-121" data-name="Ellipse 126" cx="2.5" cy="2.5" r="2.5" transform="translate(49 69)" fill="#24313d"/>
        <circle id="Ellipse_126-122" data-name="Ellipse 126" cx="2.5" cy="2.5" r="2.5" transform="translate(55 69)" fill="#24313d"/>
        <circle id="Ellipse_126-123" data-name="Ellipse 126" cx="2.5" cy="2.5" r="2.5" transform="translate(61 69)" fill="#24313d"/>
        <circle id="Ellipse_126-124" data-name="Ellipse 126" cx="2.5" cy="2.5" r="2.5" transform="translate(67 69)" fill="#24313d"/>
        <circle id="Ellipse_126-125" data-name="Ellipse 126" cx="2.5" cy="2.5" r="2.5" transform="translate(73 69)" fill="#24313d"/>
        <circle id="Ellipse_126-126" data-name="Ellipse 126" cx="2.5" cy="2.5" r="2.5" transform="translate(79 69)" fill="#24313d"/>
        <circle id="Ellipse_126-127" data-name="Ellipse 126" cx="2.5" cy="2.5" r="2.5" transform="translate(85 21)" fill="#24313d"/>
        <circle id="Ellipse_126-128" data-name="Ellipse 126" cx="2.5" cy="2.5" r="2.5" transform="translate(85 27)" fill="#24313d"/>
        <circle id="Ellipse_126-129" data-name="Ellipse 126" cx="2.5" cy="2.5" r="2.5" transform="translate(85 33)" fill="#24313d"/>
        <circle id="Ellipse_126-130" data-name="Ellipse 126" cx="2.5" cy="2.5" r="2.5" transform="translate(85 39)" fill="#24313d"/>
        <circle id="Ellipse_126-131" data-name="Ellipse 126" cx="2.5" cy="2.5" r="2.5" transform="translate(85 45)" fill="#24313d"/>
        <circle id="Ellipse_126-132" data-name="Ellipse 126" cx="2.5" cy="2.5" r="2.5" transform="translate(85 51)" fill="#24313d"/>
        <circle id="Ellipse_126-133" data-name="Ellipse 126" cx="2.5" cy="2.5" r="2.5" transform="translate(85 57)" fill="#24313d"/>
        <circle id="Ellipse_126-134" data-name="Ellipse 126" cx="2.5" cy="2.5" r="2.5" transform="translate(85 63)" fill="#24313d"/>
        <circle id="Ellipse_126-135" data-name="Ellipse 126" cx="2.5" cy="2.5" r="2.5" transform="translate(85 69)" fill="#24313d"/>
      </g>
    </g>
    <path id="Subtraction_10" data-name="Subtraction 10" d="M1541.376,1132.5H1525.9a38.095,38.095,0,0,1,76.182,0H1586.6a22.618,22.618,0,0,0-45.223,0Z" transform="translate(-1521.896 -1070.902)" fill="none" stroke="#2a2a2a" stroke-linecap="round" stroke-linejoin="round" stroke-width="1"/>
  </g>
</svg>
