<svg xmlns="http://www.w3.org/2000/svg" width="70" height="34.957" viewBox="0 0 70 34.957">
  <g id="Semi-Circle_Donut_Chart" data-name="Semi-Circle Donut Chart" transform="translate(-7.5 -25.5)">
    <path id="Subtraction_10" data-name="Subtraction 10" d="M13.147,33.957H0A34.514,34.514,0,0,1,66.293,21.073,34.279,34.279,0,0,1,69,33.955H55.853a21.36,21.36,0,0,0-42.706,0Z" transform="translate(8 26)" fill="#24313d" stroke="#2a2a2a" stroke-linecap="round" stroke-linejoin="round" stroke-width="1"/>
    <path id="Subtraction_12" data-name="Subtraction 12" d="M18.7,22.317H5.553A21.224,21.224,0,0,0,3.88,14.55,21.285,21.285,0,0,0,0,8.491L10.041,0a34.385,34.385,0,0,1,5.951,9.434A34.281,34.281,0,0,1,18.7,22.316Z" transform="translate(58.301 37.639)" fill="#FFA500" stroke="#2a2a2a" stroke-linecap="round" stroke-linejoin="round" stroke-width="1"/>
  </g>
</svg>
