<svg xmlns="http://www.w3.org/2000/svg" width="68.749" height="34" viewBox="0 0 68.749 34">
  <g id="Timeline" transform="translate(-7 -25)">
    <g id="Rectangle_27" data-name="Rectangle 27" transform="translate(14 35)" fill="#24313d" stroke="#2a2a2a" stroke-linecap="round" stroke-linejoin="round" stroke-width="1">
      <rect width="16" height="9" stroke="none"/>
      <rect x="0.5" y="0.5" width="15" height="8" fill="none"/>
    </g>
    <g id="Rectangle_28" data-name="Rectangle 28" transform="translate(34 25)" fill="#FFA500" stroke="#2a2a2a" stroke-linecap="round" stroke-linejoin="round" stroke-width="1">
      <rect width="16" height="9" stroke="none"/>
      <rect x="0.5" y="0.5" width="15" height="8" fill="none"/>
    </g>
    <g id="Rectangle_29" data-name="Rectangle 29" transform="translate(53 35)" fill="#24313d" stroke="#2a2a2a" stroke-linecap="round" stroke-linejoin="round" stroke-width="1">
      <rect width="16" height="9" stroke="none"/>
      <rect x="0.5" y="0.5" width="15" height="8" fill="none"/>
    </g>
    <g id="Group_72" data-name="Group 72">
      <path id="Path_139" data-name="Path 139" d="M-2010.873-903.5h63.622" transform="translate(2020 960)" fill="none" stroke="#2a2a2a" stroke-width="1"/>
      <circle id="Ellipse_62" data-name="Ellipse 62" cx="1.5" cy="1.5" r="1.5" transform="translate(7 55)" fill="#2a2a2a"/>
      <path id="Polygon_1" data-name="Polygon 1" d="M1.834.25a.2.2,0,0,1,.333,0L3.793,2.689A.2.2,0,0,1,3.626,3H.374a.2.2,0,0,1-.166-.311Z" transform="translate(75.749 54.5) rotate(90)" fill="#2a2a2a"/>
      <g id="Rectangle_30" data-name="Rectangle 30" transform="translate(20 54)" fill="#d9f3f4" stroke="#2a2a2a" stroke-linecap="round" stroke-linejoin="round" stroke-width="1">
        <rect width="5" height="5" stroke="none"/>
        <rect x="0.5" y="0.5" width="4" height="4" fill="none"/>
      </g>
      <g id="Rectangle_31" data-name="Rectangle 31" transform="translate(39.5 54)" fill="#d9f3f4" stroke="#2a2a2a" stroke-linecap="round" stroke-linejoin="round" stroke-width="1">
        <rect width="5" height="5" stroke="none"/>
        <rect x="0.5" y="0.5" width="4" height="4" fill="none"/>
      </g>
      <g id="Rectangle_32" data-name="Rectangle 32" transform="translate(59 54)" fill="#d9f3f4" stroke="#2a2a2a" stroke-linecap="round" stroke-linejoin="round" stroke-width="1">
        <rect width="5" height="5" stroke="none"/>
        <rect x="0.5" y="0.5" width="4" height="4" fill="none"/>
      </g>
    </g>
    <path id="Path_140" data-name="Path 140" d="M-1998-916v10.381" transform="translate(2020.5 960)" fill="none" stroke="#2a2a2a" stroke-width="1"/>
    <path id="Path_141" data-name="Path 141" d="M-1998-916v21.224" transform="translate(2040 949.156)" fill="none" stroke="#2a2a2a" stroke-width="1"/>
    <path id="Path_142" data-name="Path 142" d="M-1998-916v10.381" transform="translate(2059.5 960)" fill="none" stroke="#2a2a2a" stroke-width="1"/>
  </g>
</svg>
